<?xml version="1.0" encoding="utf-8"?>
<!-- Generator: Adobe Illustrator 16.0.0, SVG Export Plug-In . SVG Version: 6.00 Build 0)  -->
<!DOCTYPE svg PUBLIC "-//W3C//DTD SVG 1.1//EN" "http://www.w3.org/Graphics/SVG/1.1/DTD/svg11.dtd">
<svg version="1.1" id="Layer_1" xmlns="http://www.w3.org/2000/svg" xmlns:xlink="http://www.w3.org/1999/xlink" x="0px" y="0px"
	 width="841.889px" height="174.291px" viewBox="0 217.415 841.889 174.291" enable-background="new 0 217.415 841.889 174.291"
	 xml:space="preserve">
<g>
	<path fill="#FFFFFF" d="M43.89,298.257c-4.246-8.492-10.166-8.864-10.166-8.864l26.445-58.925h0.842l70.918,158.246H85.419
		L63.534,339.89C63.534,339.898,48.135,306.756,43.89,298.257z M220.518,272.975l-10.101,28.2
		c-3.785-1.682-7.578-2.733-10.942-2.733c-10.102,0-18.1,7.788-19.361,20.833v69.446h-39.563V279.073l37.461-8.629h0.841v41.245
		h0.421c2.943-24.618,16.627-39.984,32.195-39.984C215.675,271.714,219.67,272.764,220.518,272.975z M304.053,374.617l1.683,2.523
		c-10.732,8.419-21.885,14.097-37.461,14.097c-28.411,0-32.617-18.73-32.617-30.724v-81.65h-11.993v-3.575l11.993-1.051
		l38.723-41.246h0.841v41.246h30.515l-2.734,4.626h-27.78v83.753c0,4.836,0,17.258,12.835,17.258
		C292.48,379.874,297.737,378.402,304.053,374.617z"/>
	<path fill="#FFFFFF" d="M358.336,251.931v22.306h27.99l-2.733,4.626h-25.257v109.851h-39.563V278.863h-24.739l2.831-4.626h21.908
		V258.24c0-26.09,18.521-40.825,42.087-40.825c13.466,0,27.99,4.626,40.825,14.096l-1.893,2.523
		c-6.736-3.574-13.255-5.265-19.361-5.265C368.016,228.786,358.336,236.355,358.336,251.931L358.336,251.931z M467.337,372.935
		c-7.998,9.891-18.309,18.31-35.98,18.31c-23.777,0-38.091-12.834-38.091-40.614v-71.55l38.722-8.629h0.842v84.805
		c0,7.367,0.209,24.617,15.787,24.617c6.105,0,11.783-3.784,18.52-11.362v-89.438l38.723-8.629h0.84v86.891
		c0,7.125,1.148,14.193,3.396,20.954l1.23,3.688l-19.135,4.674C481.595,389.248,470.79,383.279,467.337,372.935z M641.782,312.328
		v76.386H602.22v-81.02c0-7.367-0.211-24.618-15.787-24.618c-6.105,0-11.783,2.313-18.52,9.471v96.167h-39.564V279.073l38.723-8.629
		h0.842v17.889c8.629-9.47,18.939-16.628,35.77-16.628C627.476,271.714,641.782,284.549,641.782,312.328L641.782,312.328z
		 M741.736,373.566c-9.26,10.521-20.203,17.679-35.141,17.679c-27.148,0-49.033-23.356-49.033-57.032
		c0-36.401,25.887-62.499,58.293-62.499c10.313,0,18.73,2.943,25.459,7.578v-50.296l38.723-10.732h0.842v142.678
		c0,4.739,0.76,9.446,2.264,13.943l2.371,7.101l-19.783,4.836C755.491,389.312,745.06,383.554,741.736,373.566L741.736,373.566z
		 M741.306,368.721v-71.549c-2.523-12.624-9.68-21.885-19.992-21.885c-15.785,0-22.094,20.623-22.094,56.184
		c0,39.143,7.578,48.823,21.463,48.823C727.841,380.295,733.738,377.561,741.306,368.721L741.306,368.721z M802.325,276.242
		l38.723-8.629h0.842v118.262h-39.564V276.242z"/>
	<circle fill="#FFFFFF" cx="24.068" cy="367.638" r="24.068"/>
</g>
</svg>
